<?xml version="1.0" encoding="UTF-8" standalone="no"?>
<!DOCTYPE svg PUBLIC "-//W3C//DTD SVG 1.1//EN"
 "http://www.w3.org/Graphics/SVG/1.1/DTD/svg11.dtd">
<!-- Generated by graphviz version 2.43.0 (0)
 -->
<!-- Title: netkit_jh_graph Pages: 1 -->
<svg width="16178pt" height="20906pt"
 viewBox="0.00 0.00 2911.96 3763.14" xmlns="http://www.w3.org/2000/svg" xmlns:xlink="http://www.w3.org/1999/xlink">
<g id="graph0" class="graph" transform="scale(0.18 0.18) rotate(0) translate(4 3759.14)">
<title>netkit_jh_graph</title>
<polygon fill="white" stroke="transparent" points="-4,4 -4,-3759.14 2907.96,-3759.14 2907.96,4 -4,4"/>
<!-- Internet -->
<g id="node1" class="node">
<title>Internet</title>
<polygon fill="none" stroke="black" points="1745.46,-482.12 1670.46,-482.12 1670.46,-446.12 1745.46,-446.12 1745.46,-482.12"/>
<text text-anchor="start" x="1678.46" y="-460.42" font-family="Times,serif" font-size="14.00">Internet</text>
</g>
<!-- EXT_WWW -->
<g id="node2" class="node">
<title>EXT_WWW</title>
<text text-anchor="middle" x="1924.48" y="-330.08" font-family="Times,serif" font-size="14.00">EXT_WWW</text>
</g>
<!-- Internet&#45;&#45;EXT_WWW -->
<g id="edge1" class="edge">
<title>Internet&#45;&#45;EXT_WWW</title>
<path fill="none" stroke="black" d="M1738.06,-445.99C1786.17,-417.04 1878.36,-361.54 1911.89,-341.36"/>
<polygon fill="white" stroke="transparent" points="1735.94,-428.05 1735.94,-439.05 1756.94,-439.05 1756.94,-428.05 1735.94,-428.05"/>
<text text-anchor="start" x="1737.44" y="-431.15" font-family="Times,serif" font-size="8.00">eth0</text>
</g>
<!-- EXT_DNS -->
<g id="node3" class="node">
<title>EXT_DNS</title>
<text text-anchor="middle" x="1681.7" y="-240.86" font-family="Times,serif" font-size="14.00">EXT_DNS</text>
</g>
<!-- Internet&#45;&#45;EXT_DNS -->
<g id="edge2" class="edge">
<title>Internet&#45;&#45;EXT_DNS</title>
<path fill="none" stroke="black" d="M1705.76,-445.78C1700.31,-400.22 1686.34,-283.36 1682.62,-252.26"/>
<polygon fill="white" stroke="transparent" points="1687.35,-427.53 1687.35,-438.53 1708.35,-438.53 1708.35,-427.53 1687.35,-427.53"/>
<text text-anchor="start" x="1688.85" y="-430.63" font-family="Times,serif" font-size="8.00">eth1</text>
</g>
<!-- EXT_OFFICE -->
<g id="node4" class="node">
<title>EXT_OFFICE</title>
<text text-anchor="middle" x="1469.15" y="-384.45" font-family="Times,serif" font-size="14.00">EXT_OFFICE</text>
</g>
<!-- Internet&#45;&#45;EXT_OFFICE -->
<g id="edge3" class="edge">
<title>Internet&#45;&#45;EXT_OFFICE</title>
<path fill="none" stroke="black" d="M1670.38,-452.16C1620.6,-436.33 1534.25,-408.86 1492.75,-395.66"/>
<polygon fill="white" stroke="transparent" points="1645,-448.58 1645,-459.58 1666,-459.58 1666,-448.58 1645,-448.58"/>
<text text-anchor="start" x="1646.5" y="-451.68" font-family="Times,serif" font-size="8.00">eth2</text>
</g>
<!-- INTERNET -->
<g id="node5" class="node">
<title>INTERNET</title>
<text text-anchor="middle" x="1729.85" y="-702.91" font-family="Times,serif" font-size="14.00">INTERNET</text>
</g>
<!-- Internet&#45;&#45;INTERNET -->
<g id="edge4" class="edge">
<title>Internet&#45;&#45;INTERNET</title>
<path fill="none" stroke="black" d="M1709.6,-482.34C1714.04,-531.47 1726.11,-665.18 1729.15,-698.84"/>
<polygon fill="white" stroke="transparent" points="1706.64,-489.81 1706.64,-500.81 1727.64,-500.81 1727.64,-489.81 1706.64,-489.81"/>
<text text-anchor="start" x="1708.14" y="-492.91" font-family="Times,serif" font-size="8.00">eth3</text>
</g>
<!-- Ext&#45;Office -->
<g id="node6" class="node">
<title>Ext&#45;Office</title>
<polygon fill="none" stroke="black" points="1333.56,-252.97 1246.56,-252.97 1246.56,-216.97 1333.56,-216.97 1333.56,-252.97"/>
<text text-anchor="start" x="1254.56" y="-231.27" font-family="Times,serif" font-size="14.00">Ext&#45;Office</text>
</g>
<!-- Ext&#45;Office&#45;&#45;EXT_OFFICE -->
<g id="edge5" class="edge">
<title>Ext&#45;Office&#45;&#45;EXT_OFFICE</title>
<path fill="none" stroke="black" d="M1311.31,-253.14C1350.59,-286.75 1433.06,-357.28 1460.25,-380.54"/>
<polygon fill="white" stroke="transparent" points="1315.26,-251.66 1315.26,-262.66 1336.26,-262.66 1336.26,-251.66 1315.26,-251.66"/>
<text text-anchor="start" x="1316.76" y="-254.76" font-family="Times,serif" font-size="8.00">eth0</text>
</g>
<!-- Ext&#45;DNS -->
<g id="node7" class="node">
<title>Ext&#45;DNS</title>
<polygon fill="none" stroke="black" points="1690.17,-36 1611.17,-36 1611.17,0 1690.17,0 1690.17,-36"/>
<text text-anchor="start" x="1619.17" y="-14.3" font-family="Times,serif" font-size="14.00">Ext&#45;DNS</text>
</g>
<!-- Ext&#45;DNS&#45;&#45;EXT_DNS -->
<g id="edge6" class="edge">
<title>Ext&#45;DNS&#45;&#45;EXT_DNS</title>
<path fill="none" stroke="black" d="M1653.16,-36.16C1659.54,-82.78 1676.32,-205.26 1680.66,-236.97"/>
<polygon fill="white" stroke="transparent" points="1650.78,-43.27 1650.78,-54.27 1671.78,-54.27 1671.78,-43.27 1650.78,-43.27"/>
<text text-anchor="start" x="1652.28" y="-46.37" font-family="Times,serif" font-size="8.00">eth0</text>
</g>
<!-- Ext&#45;WWW -->
<g id="node8" class="node">
<title>Ext&#45;WWW</title>
<polygon fill="none" stroke="black" points="2115.79,-167.39 2027.79,-167.39 2027.79,-131.39 2115.79,-131.39 2115.79,-167.39"/>
<text text-anchor="start" x="2035.79" y="-145.69" font-family="Times,serif" font-size="14.00">Ext&#45;WWW</text>
</g>
<!-- Ext&#45;WWW&#45;&#45;EXT_WWW -->
<g id="edge7" class="edge">
<title>Ext&#45;WWW&#45;&#45;EXT_WWW</title>
<path fill="none" stroke="black" d="M2057.4,-167.41C2025.97,-206.73 1952.32,-298.93 1930.6,-326.11"/>
<polygon fill="white" stroke="transparent" points="2043.36,-176.48 2043.36,-187.48 2064.36,-187.48 2064.36,-176.48 2043.36,-176.48"/>
<text text-anchor="start" x="2044.86" y="-179.58" font-family="Times,serif" font-size="8.00">eth0</text>
</g>
<!-- gw -->
<g id="node9" class="node">
<title>gw</title>
<polygon fill="none" stroke="black" points="1776,-960.98 1738,-960.98 1738,-924.98 1776,-924.98 1776,-960.98"/>
<text text-anchor="start" x="1746" y="-939.28" font-family="Times,serif" font-size="14.00">gw</text>
</g>
<!-- gw&#45;&#45;INTERNET -->
<g id="edge8" class="edge">
<title>gw&#45;&#45;INTERNET</title>
<path fill="none" stroke="black" d="M1754.91,-924.82C1749.37,-876.61 1734.46,-746.81 1730.71,-714.15"/>
<polygon fill="white" stroke="transparent" points="1736.56,-906.54 1736.56,-917.54 1757.56,-917.54 1757.56,-906.54 1736.56,-906.54"/>
<text text-anchor="start" x="1738.06" y="-909.64" font-family="Times,serif" font-size="8.00">eth0</text>
</g>
<!-- GATEWAY -->
<g id="node10" class="node">
<title>GATEWAY</title>
<text text-anchor="middle" x="1808.96" y="-1175.18" font-family="Times,serif" font-size="14.00">GATEWAY</text>
</g>
<!-- gw&#45;&#45;GATEWAY -->
<g id="edge9" class="edge">
<title>gw&#45;&#45;GATEWAY</title>
<path fill="none" stroke="black" d="M1760.99,-961.1C1771.59,-1009.22 1800.12,-1138.76 1807.3,-1171.36"/>
<polygon fill="white" stroke="transparent" points="1759.6,-967.51 1759.6,-978.51 1780.6,-978.51 1780.6,-967.51 1759.6,-967.51"/>
<text text-anchor="start" x="1761.1" y="-970.61" font-family="Times,serif" font-size="8.00">eth1</text>
</g>
<!-- DmzRouter -->
<g id="node11" class="node">
<title>DmzRouter</title>
<polygon fill="none" stroke="black" points="1969.05,-1420.6 1871.05,-1420.6 1871.05,-1384.6 1969.05,-1384.6 1969.05,-1420.6"/>
<text text-anchor="start" x="1879.05" y="-1398.9" font-family="Times,serif" font-size="14.00">DmzRouter</text>
</g>
<!-- DmzRouter&#45;&#45;GATEWAY -->
<g id="edge10" class="edge">
<title>DmzRouter&#45;&#45;GATEWAY</title>
<path fill="none" stroke="black" d="M1910.96,-1384.29C1888.05,-1338.17 1828.68,-1218.6 1812.87,-1186.77"/>
<polygon fill="white" stroke="transparent" points="1888.73,-1369.43 1888.73,-1380.43 1909.73,-1380.43 1909.73,-1369.43 1888.73,-1369.43"/>
<text text-anchor="start" x="1890.23" y="-1372.53" font-family="Times,serif" font-size="8.00">eth0</text>
</g>
<!-- INTERNAL -->
<g id="node12" class="node">
<title>INTERNAL</title>
<text text-anchor="middle" x="1875.2" y="-1651.83" font-family="Times,serif" font-size="14.00">INTERNAL</text>
</g>
<!-- DmzRouter&#45;&#45;INTERNAL -->
<g id="edge11" class="edge">
<title>DmzRouter&#45;&#45;INTERNAL</title>
<path fill="none" stroke="black" d="M1916.82,-1420.79C1907.83,-1471.53 1882.71,-1613.2 1876.57,-1647.82"/>
<polygon fill="white" stroke="transparent" points="1910.19,-1429.78 1910.19,-1440.78 1931.19,-1440.78 1931.19,-1429.78 1910.19,-1429.78"/>
<text text-anchor="start" x="1911.69" y="-1432.88" font-family="Times,serif" font-size="8.00">eth1</text>
</g>
<!-- DMZ -->
<g id="node13" class="node">
<title>DMZ</title>
<text text-anchor="middle" x="2145.9" y="-1304.36" font-family="Times,serif" font-size="14.00">DMZ</text>
</g>
<!-- DmzRouter&#45;&#45;DMZ -->
<g id="edge12" class="edge">
<title>DmzRouter&#45;&#45;DMZ</title>
<path fill="none" stroke="black" d="M1963.06,-1384.59C2012.85,-1363.75 2092.53,-1330.4 2127.94,-1315.58"/>
<polygon fill="white" stroke="transparent" points="1962.65,-1368 1962.65,-1379 1983.65,-1379 1983.65,-1368 1962.65,-1368"/>
<text text-anchor="start" x="1964.15" y="-1371.1" font-family="Times,serif" font-size="8.00">eth2</text>
</g>
<!-- InternalRouter -->
<g id="node14" class="node">
<title>InternalRouter</title>
<polygon fill="none" stroke="black" points="1942.81,-1933.23 1820.81,-1933.23 1820.81,-1897.23 1942.81,-1897.23 1942.81,-1933.23"/>
<text text-anchor="start" x="1828.81" y="-1911.53" font-family="Times,serif" font-size="14.00">InternalRouter</text>
</g>
<!-- InternalRouter&#45;&#45;INTERNAL -->
<g id="edge13" class="edge">
<title>InternalRouter&#45;&#45;INTERNAL</title>
<path fill="none" stroke="black" d="M1881.35,-1896.97C1880.03,-1845.25 1876.31,-1699.19 1875.41,-1663.48"/>
<polygon fill="white" stroke="transparent" points="1864.16,-1878.04 1864.16,-1889.04 1885.16,-1889.04 1885.16,-1878.04 1864.16,-1878.04"/>
<text text-anchor="start" x="1865.66" y="-1881.14" font-family="Times,serif" font-size="8.00">eth0</text>
</g>
<!-- EXTRANET -->
<g id="node15" class="node">
<title>EXTRANET</title>
<text text-anchor="middle" x="2140" y="-1980.13" font-family="Times,serif" font-size="14.00">EXTRANET</text>
</g>
<!-- InternalRouter&#45;&#45;EXTRANET -->
<g id="edge14" class="edge">
<title>InternalRouter&#45;&#45;EXTRANET</title>
<path fill="none" stroke="black" d="M1943,-1931.49C1996.39,-1945.67 2071.43,-1965.61 2111.75,-1976.33"/>
<polygon fill="white" stroke="transparent" points="1947.27,-1923.35 1947.27,-1934.35 1968.27,-1934.35 1968.27,-1923.35 1947.27,-1923.35"/>
<text text-anchor="start" x="1948.77" y="-1926.45" font-family="Times,serif" font-size="8.00">eth1</text>
</g>
<!-- STAFF -->
<g id="node16" class="node">
<title>STAFF</title>
<text text-anchor="middle" x="1661.8" y="-2069.23" font-family="Times,serif" font-size="14.00">STAFF</text>
</g>
<!-- InternalRouter&#45;&#45;STAFF -->
<g id="edge15" class="edge">
<title>InternalRouter&#45;&#45;STAFF</title>
<path fill="none" stroke="black" d="M1856.57,-1933.32C1808.49,-1967.79 1705.58,-2041.55 1672.37,-2065.35"/>
<polygon fill="white" stroke="transparent" points="1838.72,-1940.89 1838.72,-1951.89 1859.72,-1951.89 1859.72,-1940.89 1838.72,-1940.89"/>
<text text-anchor="start" x="1840.22" y="-1943.99" font-family="Times,serif" font-size="8.00">eth2</text>
</g>
<!-- InternalDmzRouter -->
<g id="node17" class="node">
<title>InternalDmzRouter</title>
<polygon fill="none" stroke="black" points="1192.39,-1996.23 1037.39,-1996.23 1037.39,-1960.23 1192.39,-1960.23 1192.39,-1996.23"/>
<text text-anchor="start" x="1045.39" y="-1974.53" font-family="Times,serif" font-size="14.00">InternalDmzRouter</text>
</g>
<!-- INTERNAL_DMZ -->
<g id="node18" class="node">
<title>INTERNAL_DMZ</title>
<text text-anchor="middle" x="908.98" y="-1850.1" font-family="Times,serif" font-size="14.00">INTERNAL_DMZ</text>
</g>
<!-- InternalDmzRouter&#45;&#45;INTERNAL_DMZ -->
<g id="edge16" class="edge">
<title>InternalDmzRouter&#45;&#45;INTERNAL_DMZ</title>
<path fill="none" stroke="black" d="M1084.95,-1960.14C1039.22,-1932.5 953.89,-1880.93 921.7,-1861.48"/>
<polygon fill="white" stroke="transparent" points="1059.54,-1953.03 1059.54,-1964.03 1080.54,-1964.03 1080.54,-1953.03 1059.54,-1953.03"/>
<text text-anchor="start" x="1061.04" y="-1956.13" font-family="Times,serif" font-size="8.00">eth1</text>
</g>
<!-- InternalDmzRouter_StaffSwitch_eth1 -->
<g id="node19" class="node">
<title>InternalDmzRouter_StaffSwitch_eth1</title>
<text text-anchor="middle" x="1304.69" y="-2116.96" font-family="Times,serif" font-size="14.00">InternalDmzRouter_StaffSwitch_eth1</text>
</g>
<!-- InternalDmzRouter&#45;&#45;InternalDmzRouter_StaffSwitch_eth1 -->
<g id="edge17" class="edge">
<title>InternalDmzRouter&#45;&#45;InternalDmzRouter_StaffSwitch_eth1</title>
<path fill="none" stroke="black" d="M1138.93,-1996.27C1180.83,-2027.71 1265.53,-2091.27 1294.62,-2113.1"/>
<polygon fill="white" stroke="transparent" points="1143.11,-1993.86 1143.11,-2004.86 1164.11,-2004.86 1164.11,-1993.86 1143.11,-1993.86"/>
<text text-anchor="start" x="1144.61" y="-1996.96" font-family="Times,serif" font-size="8.00">eth0</text>
</g>
<!-- StaffSwitch -->
<g id="node20" class="node">
<title>StaffSwitch</title>
<polygon fill="none" stroke="black" points="1506.81,-2299.21 1407.81,-2299.21 1407.81,-2263.21 1506.81,-2263.21 1506.81,-2299.21"/>
<text text-anchor="start" x="1415.81" y="-2277.51" font-family="Times,serif" font-size="14.00">StaffSwitch</text>
</g>
<!-- StaffSwitch&#45;&#45;STAFF -->
<g id="edge18" class="edge">
<title>StaffSwitch&#45;&#45;STAFF</title>
<path fill="none" stroke="black" d="M1475.1,-2263.09C1517.85,-2219.54 1625,-2110.4 1654.29,-2080.57"/>
<polygon fill="white" stroke="transparent" points="1469.6,-2243.45 1469.6,-2254.45 1490.6,-2254.45 1490.6,-2243.45 1469.6,-2243.45"/>
<text text-anchor="start" x="1471.1" y="-2246.55" font-family="Times,serif" font-size="8.00">eth0</text>
</g>
<!-- StaffSwitch&#45;&#45;InternalDmzRouter_StaffSwitch_eth1 -->
<g id="edge19" class="edge">
<title>StaffSwitch&#45;&#45;InternalDmzRouter_StaffSwitch_eth1</title>
<path fill="none" stroke="black" d="M1440.1,-2263.1C1406.89,-2228.17 1335.21,-2152.76 1312.06,-2128.41"/>
<polygon fill="white" stroke="transparent" points="1415.64,-2252.12 1415.64,-2263.12 1436.64,-2263.12 1436.64,-2252.12 1415.64,-2252.12"/>
<text text-anchor="start" x="1417.14" y="-2255.22" font-family="Times,serif" font-size="8.00">eth1</text>
</g>
<!-- OpenVPN_StaffSwitch_eth2 -->
<g id="node21" class="node">
<title>OpenVPN_StaffSwitch_eth2</title>
<text text-anchor="middle" x="1647.27" y="-2275.6" font-family="Times,serif" font-size="14.00">OpenVPN_StaffSwitch_eth2</text>
</g>
<!-- StaffSwitch&#45;&#45;OpenVPN_StaffSwitch_eth2 -->
<g id="edge20" class="edge">
<title>StaffSwitch&#45;&#45;OpenVPN_StaffSwitch_eth2</title>
<path fill="none" stroke="black" d="M1507.22,-2280.71C1519.86,-2280.58 1533.89,-2280.44 1548.04,-2280.3"/>
<polygon fill="white" stroke="transparent" points="1510.25,-2268.73 1510.25,-2279.73 1531.25,-2279.73 1531.25,-2268.73 1510.25,-2268.73"/>
<text text-anchor="start" x="1511.75" y="-2271.83" font-family="Times,serif" font-size="8.00">eth2</text>
</g>
<!-- BuildingASwitch_StaffSwitch_eth3 -->
<g id="node22" class="node">
<title>BuildingASwitch_StaffSwitch_eth3</title>
<text text-anchor="middle" x="1219.13" y="-2381.68" font-family="Times,serif" font-size="14.00">BuildingASwitch_StaffSwitch_eth3</text>
</g>
<!-- StaffSwitch&#45;&#45;BuildingASwitch_StaffSwitch_eth3 -->
<g id="edge21" class="edge">
<title>StaffSwitch&#45;&#45;BuildingASwitch_StaffSwitch_eth3</title>
<path fill="none" stroke="black" d="M1416.09,-2299.23C1363.24,-2322.35 1273.93,-2361.41 1236.47,-2377.79"/>
<polygon fill="white" stroke="transparent" points="1395.68,-2304.99 1395.68,-2315.99 1416.68,-2315.99 1416.68,-2304.99 1395.68,-2304.99"/>
<text text-anchor="start" x="1397.18" y="-2308.09" font-family="Times,serif" font-size="8.00">eth3</text>
</g>
<!-- BuildingBSwitch_StaffSwitch_eth4 -->
<g id="node23" class="node">
<title>BuildingBSwitch_StaffSwitch_eth4</title>
<text text-anchor="middle" x="1532.19" y="-2593.12" font-family="Times,serif" font-size="14.00">BuildingBSwitch_StaffSwitch_eth4</text>
</g>
<!-- StaffSwitch&#45;&#45;BuildingBSwitch_StaffSwitch_eth4 -->
<g id="edge22" class="edge">
<title>StaffSwitch&#45;&#45;BuildingBSwitch_StaffSwitch_eth4</title>
<path fill="none" stroke="black" d="M1461.66,-2299.54C1475.89,-2359.53 1520.72,-2548.47 1530.35,-2589.08"/>
<polygon fill="white" stroke="transparent" points="1460.47,-2305.8 1460.47,-2316.8 1481.47,-2316.8 1481.47,-2305.8 1460.47,-2305.8"/>
<text text-anchor="start" x="1461.97" y="-2308.9" font-family="Times,serif" font-size="8.00">eth4</text>
</g>
<!-- StaffDhcp_StaffSwitch_eth5 -->
<g id="node24" class="node">
<title>StaffDhcp_StaffSwitch_eth5</title>
<text text-anchor="middle" x="1563.32" y="-2369.04" font-family="Times,serif" font-size="14.00">StaffDhcp_StaffSwitch_eth5</text>
</g>
<!-- StaffSwitch&#45;&#45;StaffDhcp_StaffSwitch_eth5 -->
<g id="edge23" class="edge">
<title>StaffSwitch&#45;&#45;StaffDhcp_StaffSwitch_eth5</title>
<path fill="none" stroke="black" d="M1478.26,-2299.29C1501.55,-2319.4 1538.07,-2350.93 1554.63,-2365.24"/>
<polygon fill="white" stroke="transparent" points="1482.19,-2297.88 1482.19,-2308.88 1503.19,-2308.88 1503.19,-2297.88 1482.19,-2297.88"/>
<text text-anchor="start" x="1483.69" y="-2300.98" font-family="Times,serif" font-size="8.00">eth5</text>
</g>
<!-- StaffDhcp_StaffSwitch_eth6 -->
<g id="node25" class="node">
<title>StaffDhcp_StaffSwitch_eth6</title>
<text text-anchor="middle" x="1432.84" y="-2431.44" font-family="Times,serif" font-size="14.00">StaffDhcp_StaffSwitch_eth6</text>
</g>
<!-- StaffSwitch&#45;&#45;StaffDhcp_StaffSwitch_eth6 -->
<g id="edge24" class="edge">
<title>StaffSwitch&#45;&#45;StaffDhcp_StaffSwitch_eth6</title>
<path fill="none" stroke="black" d="M1454.41,-2299.47C1449.04,-2333.24 1437.77,-2404.12 1434.05,-2427.49"/>
<polygon fill="white" stroke="transparent" points="1448.03,-2308.39 1448.03,-2319.39 1469.03,-2319.39 1469.03,-2308.39 1448.03,-2308.39"/>
<text text-anchor="start" x="1449.53" y="-2311.49" font-family="Times,serif" font-size="8.00">eth6</text>
</g>
<!-- DmzSwitch -->
<g id="node26" class="node">
<title>DmzSwitch</title>
<polygon fill="none" stroke="black" points="2410.59,-1213.35 2312.59,-1213.35 2312.59,-1177.35 2410.59,-1177.35 2410.59,-1213.35"/>
<text text-anchor="start" x="2320.59" y="-1191.65" font-family="Times,serif" font-size="14.00">DmzSwitch</text>
</g>
<!-- DmzSwitch&#45;&#45;DMZ -->
<g id="edge25" class="edge">
<title>DmzSwitch&#45;&#45;DMZ</title>
<path fill="none" stroke="black" d="M2326.93,-1213.46C2278.94,-1238.54 2194.35,-1282.75 2160.5,-1300.44"/>
<polygon fill="white" stroke="transparent" points="2307.32,-1219.88 2307.32,-1230.88 2328.32,-1230.88 2328.32,-1219.88 2307.32,-1219.88"/>
<text text-anchor="start" x="2308.82" y="-1222.98" font-family="Times,serif" font-size="8.00">eth0</text>
</g>
<!-- DmzSwitch_Mail_eth1 -->
<g id="node27" class="node">
<title>DmzSwitch_Mail_eth1</title>
<text text-anchor="middle" x="2572.8" y="-1082.86" font-family="Times,serif" font-size="14.00">DmzSwitch_Mail_eth1</text>
</g>
<!-- DmzSwitch&#45;&#45;DmzSwitch_Mail_eth1 -->
<g id="edge26" class="edge">
<title>DmzSwitch&#45;&#45;DmzSwitch_Mail_eth1</title>
<path fill="none" stroke="black" d="M2396.94,-1177.14C2443.91,-1152.95 2524.83,-1111.27 2557.98,-1094.19"/>
<polygon fill="white" stroke="transparent" points="2395.62,-1159.78 2395.62,-1170.78 2416.62,-1170.78 2416.62,-1159.78 2395.62,-1159.78"/>
<text text-anchor="start" x="2397.12" y="-1162.88" font-family="Times,serif" font-size="8.00">eth1</text>
</g>
<!-- ExtranetSwitch -->
<g id="node28" class="node">
<title>ExtranetSwitch</title>
<polygon fill="none" stroke="black" points="2458.9,-2063.1 2330.9,-2063.1 2330.9,-2027.1 2458.9,-2027.1 2458.9,-2063.1"/>
<text text-anchor="start" x="2338.9" y="-2041.4" font-family="Times,serif" font-size="14.00">ExtranetSwitch</text>
</g>
<!-- ExtranetSwitch&#45;&#45;EXTRANET -->
<g id="edge27" class="edge">
<title>ExtranetSwitch&#45;&#45;EXTRANET</title>
<path fill="none" stroke="black" d="M2330.58,-2029.64C2279.7,-2017.41 2210.86,-2000.86 2171.36,-1991.37"/>
<polygon fill="white" stroke="transparent" points="2305.38,-2027.12 2305.38,-2038.12 2326.38,-2038.12 2326.38,-2027.12 2305.38,-2027.12"/>
<text text-anchor="start" x="2306.88" y="-2030.22" font-family="Times,serif" font-size="8.00">eth0</text>
</g>
<!-- ExtranetSwitch_Squid_eth1 -->
<g id="node29" class="node">
<title>ExtranetSwitch_Squid_eth1</title>
<text text-anchor="middle" x="2558.15" y="-1869.07" font-family="Times,serif" font-size="14.00">ExtranetSwitch_Squid_eth1</text>
</g>
<!-- ExtranetSwitch&#45;&#45;ExtranetSwitch_Squid_eth1 -->
<g id="edge28" class="edge">
<title>ExtranetSwitch&#45;&#45;ExtranetSwitch_Squid_eth1</title>
<path fill="none" stroke="black" d="M2412.06,-2026.98C2447.26,-1989.82 2526.38,-1906.31 2550.82,-1880.51"/>
<polygon fill="white" stroke="transparent" points="2406.31,-2007.25 2406.31,-2018.25 2427.31,-2018.25 2427.31,-2007.25 2406.31,-2007.25"/>
<text text-anchor="start" x="2407.81" y="-2010.35" font-family="Times,serif" font-size="8.00">eth1</text>
</g>
<!-- ExtranetSwitch_Int_WWW_eth2 -->
<g id="node30" class="node">
<title>ExtranetSwitch_Int_WWW_eth2</title>
<text text-anchor="middle" x="2520.84" y="-2254.76" font-family="Times,serif" font-size="14.00">ExtranetSwitch_Int_WWW_eth2</text>
</g>
<!-- ExtranetSwitch&#45;&#45;ExtranetSwitch_Int_WWW_eth2 -->
<g id="edge29" class="edge">
<title>ExtranetSwitch&#45;&#45;ExtranetSwitch_Int_WWW_eth2</title>
<path fill="none" stroke="black" d="M2405.63,-2063.29C2431.81,-2107.63 2498.08,-2219.9 2516.2,-2250.6"/>
<polygon fill="white" stroke="transparent" points="2407.5,-2066.27 2407.5,-2077.27 2428.5,-2077.27 2428.5,-2066.27 2407.5,-2066.27"/>
<text text-anchor="start" x="2409" y="-2069.37" font-family="Times,serif" font-size="8.00">eth2</text>
</g>
<!-- ExtranetSwitch_Int_DNS_eth3 -->
<g id="node31" class="node">
<title>ExtranetSwitch_Int_DNS_eth3</title>
<text text-anchor="middle" x="2623.03" y="-2076.86" font-family="Times,serif" font-size="14.00">ExtranetSwitch_Int_DNS_eth3</text>
</g>
<!-- ExtranetSwitch&#45;&#45;ExtranetSwitch_Int_DNS_eth3 -->
<g id="edge30" class="edge">
<title>ExtranetSwitch&#45;&#45;ExtranetSwitch_Int_DNS_eth3</title>
<path fill="none" stroke="black" d="M2459.05,-2055.07C2495.69,-2060.76 2540.88,-2067.79 2574.54,-2073.02"/>
<polygon fill="white" stroke="transparent" points="2462.96,-2045.39 2462.96,-2056.39 2483.96,-2056.39 2483.96,-2045.39 2462.96,-2045.39"/>
<text text-anchor="start" x="2464.46" y="-2048.49" font-family="Times,serif" font-size="8.00">eth3</text>
</g>
<!-- InternalDmzSwitch -->
<g id="node32" class="node">
<title>InternalDmzSwitch</title>
<polygon fill="none" stroke="black" points="773.2,-1764.09 618.2,-1764.09 618.2,-1728.09 773.2,-1728.09 773.2,-1764.09"/>
<text text-anchor="start" x="626.2" y="-1742.39" font-family="Times,serif" font-size="14.00">InternalDmzSwitch</text>
</g>
<!-- InternalDmzSwitch&#45;&#45;INTERNAL_DMZ -->
<g id="edge31" class="edge">
<title>InternalDmzSwitch&#45;&#45;INTERNAL_DMZ</title>
<path fill="none" stroke="black" d="M731.4,-1764.12C778.84,-1788.07 860.54,-1829.33 894.02,-1846.24"/>
<polygon fill="white" stroke="transparent" points="735.9,-1759.09 735.9,-1770.09 756.9,-1770.09 756.9,-1759.09 735.9,-1759.09"/>
<text text-anchor="start" x="737.4" y="-1762.19" font-family="Times,serif" font-size="8.00">eth0</text>
</g>
<!-- InternalDmzSwitch_LDAP_eth1 -->
<g id="node33" class="node">
<title>InternalDmzSwitch_LDAP_eth1</title>
<text text-anchor="middle" x="481.07" y="-1649.86" font-family="Times,serif" font-size="14.00">InternalDmzSwitch_LDAP_eth1</text>
</g>
<!-- InternalDmzSwitch&#45;&#45;InternalDmzSwitch_LDAP_eth1 -->
<g id="edge32" class="edge">
<title>InternalDmzSwitch&#45;&#45;InternalDmzSwitch_LDAP_eth1</title>
<path fill="none" stroke="black" d="M653.81,-1728.03C606.6,-1707.68 532.07,-1675.55 498.49,-1661.07"/>
<polygon fill="white" stroke="transparent" points="628.32,-1722.97 628.32,-1733.97 649.32,-1733.97 649.32,-1722.97 628.32,-1722.97"/>
<text text-anchor="start" x="629.82" y="-1726.07" font-family="Times,serif" font-size="8.00">eth1</text>
</g>
<!-- HrSwitchA -->
<g id="node34" class="node">
<title>HrSwitchA</title>
<polygon fill="none" stroke="black" points="786.4,-2922.39 692.4,-2922.39 692.4,-2886.39 786.4,-2886.39 786.4,-2922.39"/>
<text text-anchor="start" x="700.4" y="-2900.69" font-family="Times,serif" font-size="14.00">HrSwitchA</text>
</g>
<!-- HrSwitchA_Staff_HR_A_1_eth1 -->
<g id="node35" class="node">
<title>HrSwitchA_Staff_HR_A_1_eth1</title>
<text text-anchor="middle" x="579.42" y="-3067.44" font-family="Times,serif" font-size="14.00">HrSwitchA_Staff_HR_A_1_eth1</text>
</g>
<!-- HrSwitchA&#45;&#45;HrSwitchA_Staff_HR_A_1_eth1 -->
<g id="edge33" class="edge">
<title>HrSwitchA&#45;&#45;HrSwitchA_Staff_HR_A_1_eth1</title>
<path fill="none" stroke="black" d="M721.97,-2922.55C687.31,-2958.68 610.99,-3038.24 586.88,-3063.37"/>
<polygon fill="white" stroke="transparent" points="706.64,-2931.25 706.64,-2942.25 727.64,-2942.25 727.64,-2931.25 706.64,-2931.25"/>
<text text-anchor="start" x="708.14" y="-2934.35" font-family="Times,serif" font-size="8.00">eth1</text>
</g>
<!-- BuildingASwitch_HrSwitchA_eth1 -->
<g id="node36" class="node">
<title>BuildingASwitch_HrSwitchA_eth1</title>
<text text-anchor="middle" x="889.48" y="-2714.86" font-family="Times,serif" font-size="14.00">BuildingASwitch_HrSwitchA_eth1</text>
</g>
<!-- HrSwitchA&#45;&#45;BuildingASwitch_HrSwitchA_eth1 -->
<g id="edge34" class="edge">
<title>HrSwitchA&#45;&#45;BuildingASwitch_HrSwitchA_eth1</title>
<path fill="none" stroke="black" d="M754.06,-2886.23C786.07,-2846.6 861.12,-2753.68 883.24,-2726.29"/>
<polygon fill="white" stroke="transparent" points="747.17,-2866.17 747.17,-2877.17 768.17,-2877.17 768.17,-2866.17 747.17,-2866.17"/>
<text text-anchor="start" x="748.67" y="-2869.27" font-family="Times,serif" font-size="8.00">eth0</text>
</g>
<!-- FinanceSwitchA -->
<g id="node37" class="node">
<title>FinanceSwitchA</title>
<polygon fill="none" stroke="black" points="589.19,-2432.82 458.19,-2432.82 458.19,-2396.82 589.19,-2396.82 589.19,-2432.82"/>
<text text-anchor="start" x="466.19" y="-2411.12" font-family="Times,serif" font-size="14.00">FinanceSwitchA</text>
</g>
<!-- FinanceSwitchA_Staff_Finance_A_1_eth1 -->
<g id="node38" class="node">
<title>FinanceSwitchA_Staff_Finance_A_1_eth1</title>
<text text-anchor="middle" x="292" y="-2428.91" font-family="Times,serif" font-size="14.00">FinanceSwitchA_Staff_Finance_A_1_eth1</text>
</g>
<!-- FinanceSwitchA&#45;&#45;FinanceSwitchA_Staff_Finance_A_1_eth1 -->
<g id="edge35" class="edge">
<title>FinanceSwitchA&#45;&#45;FinanceSwitchA_Staff_Finance_A_1_eth1</title>
<path fill="none" stroke="black" d="M457.92,-2419.87C436.78,-2421.49 412.89,-2423.33 389.95,-2425.09"/>
<polygon fill="white" stroke="transparent" points="434.35,-2421.73 434.35,-2432.73 455.35,-2432.73 455.35,-2421.73 434.35,-2421.73"/>
<text text-anchor="start" x="435.85" y="-2424.83" font-family="Times,serif" font-size="8.00">eth1</text>
</g>
<!-- BuildingASwitch_FinanceSwitchA_eth2 -->
<g id="node39" class="node">
<title>BuildingASwitch_FinanceSwitchA_eth2</title>
<text text-anchor="middle" x="762.59" y="-2418.75" font-family="Times,serif" font-size="14.00">BuildingASwitch_FinanceSwitchA_eth2</text>
</g>
<!-- FinanceSwitchA&#45;&#45;BuildingASwitch_FinanceSwitchA_eth2 -->
<g id="edge36" class="edge">
<title>FinanceSwitchA&#45;&#45;BuildingASwitch_FinanceSwitchA_eth2</title>
<path fill="none" stroke="black" d="M589.29,-2416.91C599.78,-2417.25 610.98,-2417.61 622.45,-2417.97"/>
<polygon fill="white" stroke="transparent" points="592.58,-2405.51 592.58,-2416.51 613.58,-2416.51 613.58,-2405.51 592.58,-2405.51"/>
<text text-anchor="start" x="594.08" y="-2408.61" font-family="Times,serif" font-size="8.00">eth0</text>
</g>
<!-- HrSwitchB -->
<g id="node40" class="node">
<title>HrSwitchB</title>
<polygon fill="none" stroke="black" points="1541.11,-3309.78 1446.11,-3309.78 1446.11,-3273.78 1541.11,-3273.78 1541.11,-3309.78"/>
<text text-anchor="start" x="1454.11" y="-3288.08" font-family="Times,serif" font-size="14.00">HrSwitchB</text>
</g>
<!-- HrSwitchB_Staff_HR_B_1_eth1 -->
<g id="node41" class="node">
<title>HrSwitchB_Staff_HR_B_1_eth1</title>
<text text-anchor="middle" x="1464.85" y="-3515.34" font-family="Times,serif" font-size="14.00">HrSwitchB_Staff_HR_B_1_eth1</text>
</g>
<!-- HrSwitchB&#45;&#45;HrSwitchB_Staff_HR_B_1_eth1 -->
<g id="edge37" class="edge">
<title>HrSwitchB&#45;&#45;HrSwitchB_Staff_HR_B_1_eth1</title>
<path fill="none" stroke="black" d="M1491.3,-3309.99C1485.38,-3356.76 1469.84,-3479.62 1465.82,-3511.44"/>
<polygon fill="white" stroke="transparent" points="1485.38,-3318.77 1485.38,-3329.77 1506.38,-3329.77 1506.38,-3318.77 1485.38,-3318.77"/>
<text text-anchor="start" x="1486.88" y="-3321.87" font-family="Times,serif" font-size="8.00">eth1</text>
</g>
<!-- BuildingBSwitch_HrSwitchB_eth1 -->
<g id="node42" class="node">
<title>BuildingBSwitch_HrSwitchB_eth1</title>
<text text-anchor="middle" x="1539.45" y="-3056.71" font-family="Times,serif" font-size="14.00">BuildingBSwitch_HrSwitchB_eth1</text>
</g>
<!-- HrSwitchB&#45;&#45;BuildingBSwitch_HrSwitchB_eth1 -->
<g id="edge38" class="edge">
<title>HrSwitchB&#45;&#45;BuildingBSwitch_HrSwitchB_eth1</title>
<path fill="none" stroke="black" d="M1497.2,-3273.62C1506.58,-3226.32 1531.47,-3100.72 1537.91,-3068.19"/>
<polygon fill="white" stroke="transparent" points="1483.13,-3253.55 1483.13,-3264.55 1504.13,-3264.55 1504.13,-3253.55 1483.13,-3253.55"/>
<text text-anchor="start" x="1484.63" y="-3256.65" font-family="Times,serif" font-size="8.00">eth0</text>
</g>
<!-- FinanceSwitchB -->
<g id="node43" class="node">
<title>FinanceSwitchB</title>
<polygon fill="none" stroke="black" points="2084.37,-3172.89 1952.37,-3172.89 1952.37,-3136.89 2084.37,-3136.89 2084.37,-3172.89"/>
<text text-anchor="start" x="1960.37" y="-3151.19" font-family="Times,serif" font-size="14.00">FinanceSwitchB</text>
</g>
<!-- FinanceSwitchB_Staff_Finance_B_1_eth1 -->
<g id="node44" class="node">
<title>FinanceSwitchB_Staff_Finance_B_1_eth1</title>
<text text-anchor="middle" x="2155.77" y="-3338.14" font-family="Times,serif" font-size="14.00">FinanceSwitchB_Staff_Finance_B_1_eth1</text>
</g>
<!-- FinanceSwitchB&#45;&#45;FinanceSwitchB_Staff_Finance_B_1_eth1 -->
<g id="edge39" class="edge">
<title>FinanceSwitchB&#45;&#45;FinanceSwitchB_Staff_Finance_B_1_eth1</title>
<path fill="none" stroke="black" d="M2031.8,-3173.16C2061.1,-3213.03 2129.8,-3306.51 2150.05,-3334.07"/>
<polygon fill="white" stroke="transparent" points="2034.45,-3174.86 2034.45,-3185.86 2055.45,-3185.86 2055.45,-3174.86 2034.45,-3174.86"/>
<text text-anchor="start" x="2035.95" y="-3177.96" font-family="Times,serif" font-size="8.00">eth1</text>
</g>
<!-- BuildingBSwitch_FinanceSwitchB_eth2 -->
<g id="node45" class="node">
<title>BuildingBSwitch_FinanceSwitchB_eth2</title>
<text text-anchor="middle" x="1854.25" y="-2974.61" font-family="Times,serif" font-size="14.00">BuildingBSwitch_FinanceSwitchB_eth2</text>
</g>
<!-- FinanceSwitchB&#45;&#45;BuildingBSwitch_FinanceSwitchB_eth2 -->
<g id="edge40" class="edge">
<title>FinanceSwitchB&#45;&#45;BuildingBSwitch_FinanceSwitchB_eth2</title>
<path fill="none" stroke="black" d="M2001.42,-3136.66C1966.04,-3098.59 1885.59,-3012.03 1861.31,-2985.91"/>
<polygon fill="white" stroke="transparent" points="1977.03,-3125.52 1977.03,-3136.52 1998.03,-3136.52 1998.03,-3125.52 1977.03,-3125.52"/>
<text text-anchor="start" x="1978.53" y="-3128.62" font-family="Times,serif" font-size="8.00">eth0</text>
</g>
<!-- BuildingASwitch -->
<g id="node46" class="node">
<title>BuildingASwitch</title>
<polygon fill="none" stroke="black" points="1059.77,-2514.83 924.77,-2514.83 924.77,-2478.83 1059.77,-2478.83 1059.77,-2514.83"/>
<text text-anchor="start" x="932.77" y="-2493.13" font-family="Times,serif" font-size="14.00">BuildingASwitch</text>
</g>
<!-- BuildingASwitch&#45;&#45;BuildingASwitch_StaffSwitch_eth3 -->
<g id="edge41" class="edge">
<title>BuildingASwitch&#45;&#45;BuildingASwitch_StaffSwitch_eth3</title>
<path fill="none" stroke="black" d="M1028.97,-2478.8C1079.51,-2453.97 1168.3,-2410.35 1203.81,-2392.9"/>
<polygon fill="white" stroke="transparent" points="1027.87,-2461.61 1027.87,-2472.61 1048.87,-2472.61 1048.87,-2461.61 1027.87,-2461.61"/>
<text text-anchor="start" x="1029.37" y="-2464.71" font-family="Times,serif" font-size="8.00">eth0</text>
</g>
<!-- BuildingASwitch&#45;&#45;BuildingASwitch_HrSwitchA_eth1 -->
<g id="edge42" class="edge">
<title>BuildingASwitch&#45;&#45;BuildingASwitch_HrSwitchA_eth1</title>
<path fill="none" stroke="black" d="M983.85,-2514.97C962.66,-2560.69 907.73,-2679.2 893.1,-2710.75"/>
<polygon fill="white" stroke="transparent" points="973.39,-2524.47 973.39,-2535.47 994.39,-2535.47 994.39,-2524.47 973.39,-2524.47"/>
<text text-anchor="start" x="974.89" y="-2527.57" font-family="Times,serif" font-size="8.00">eth1</text>
</g>
<!-- BuildingASwitch&#45;&#45;BuildingASwitch_FinanceSwitchA_eth2 -->
<g id="edge43" class="edge">
<title>BuildingASwitch&#45;&#45;BuildingASwitch_FinanceSwitchA_eth2</title>
<path fill="none" stroke="black" d="M936.67,-2478.82C888.48,-2463.21 821.12,-2441.4 785.99,-2430.03"/>
<polygon fill="white" stroke="transparent" points="911.28,-2475.16 911.28,-2486.16 932.28,-2486.16 932.28,-2475.16 911.28,-2475.16"/>
<text text-anchor="start" x="912.78" y="-2478.26" font-family="Times,serif" font-size="8.00">eth2</text>
</g>
<!-- BuildingBSwitch -->
<g id="node47" class="node">
<title>BuildingBSwitch</title>
<polygon fill="none" stroke="black" points="1710.05,-2861.39 1574.05,-2861.39 1574.05,-2825.39 1710.05,-2825.39 1710.05,-2861.39"/>
<text text-anchor="start" x="1582.05" y="-2839.69" font-family="Times,serif" font-size="14.00">BuildingBSwitch</text>
</g>
<!-- BuildingBSwitch&#45;&#45;BuildingBSwitch_StaffSwitch_eth4 -->
<g id="edge44" class="edge">
<title>BuildingBSwitch&#45;&#45;BuildingBSwitch_StaffSwitch_eth4</title>
<path fill="none" stroke="black" d="M1633.97,-2825.26C1611.87,-2775.66 1551.04,-2639.13 1535.73,-2604.76"/>
<polygon fill="white" stroke="transparent" points="1612.15,-2809.92 1612.15,-2820.92 1633.15,-2820.92 1633.15,-2809.92 1612.15,-2809.92"/>
<text text-anchor="start" x="1613.65" y="-2813.02" font-family="Times,serif" font-size="8.00">eth0</text>
</g>
<!-- BuildingBSwitch&#45;&#45;BuildingBSwitch_HrSwitchB_eth1 -->
<g id="edge45" class="edge">
<title>BuildingBSwitch&#45;&#45;BuildingBSwitch_HrSwitchB_eth1</title>
<path fill="none" stroke="black" d="M1633.48,-2861.52C1612.19,-2906.55 1557.59,-3022.06 1543.05,-3052.8"/>
<polygon fill="white" stroke="transparent" points="1622.9,-2871.02 1622.9,-2882.02 1643.9,-2882.02 1643.9,-2871.02 1622.9,-2871.02"/>
<text text-anchor="start" x="1624.4" y="-2874.12" font-family="Times,serif" font-size="8.00">eth1</text>
</g>
<!-- BuildingBSwitch&#45;&#45;BuildingBSwitch_FinanceSwitchB_eth2 -->
<g id="edge46" class="edge">
<title>BuildingBSwitch&#45;&#45;BuildingBSwitch_FinanceSwitchB_eth2</title>
<path fill="none" stroke="black" d="M1670.67,-2861.58C1717.73,-2891.51 1809.51,-2949.86 1842.27,-2970.69"/>
<polygon fill="white" stroke="transparent" points="1675.04,-2858.03 1675.04,-2869.03 1696.04,-2869.03 1696.04,-2858.03 1675.04,-2858.03"/>
<text text-anchor="start" x="1676.54" y="-2861.13" font-family="Times,serif" font-size="8.00">eth2</text>
</g>
<!-- Int&#45;DNS -->
<g id="node48" class="node">
<title>Int&#45;DNS</title>
<polygon fill="none" stroke="black" points="2903.96,-2138.1 2829.96,-2138.1 2829.96,-2102.1 2903.96,-2102.1 2903.96,-2138.1"/>
<text text-anchor="start" x="2837.96" y="-2116.4" font-family="Times,serif" font-size="14.00">Int&#45;DNS</text>
</g>
<!-- Int&#45;DNS&#45;&#45;ExtranetSwitch_Int_DNS_eth3 -->
<g id="edge47" class="edge">
<title>Int&#45;DNS&#45;&#45;ExtranetSwitch_Int_DNS_eth3</title>
<path fill="none" stroke="black" d="M2829.91,-2114.09C2787,-2107.14 2716.23,-2095.67 2669.63,-2088.11"/>
<polygon fill="white" stroke="transparent" points="2804.98,-2112.67 2804.98,-2123.67 2825.98,-2123.67 2825.98,-2112.67 2804.98,-2112.67"/>
<text text-anchor="start" x="2806.48" y="-2115.77" font-family="Times,serif" font-size="8.00">eth0</text>
</g>
<!-- Int&#45;WWW -->
<g id="node49" class="node">
<title>Int&#45;WWW</title>
<polygon fill="none" stroke="black" points="2772.02,-2410.86 2689.02,-2410.86 2689.02,-2374.86 2772.02,-2374.86 2772.02,-2410.86"/>
<text text-anchor="start" x="2697.02" y="-2389.16" font-family="Times,serif" font-size="14.00">Int&#45;WWW</text>
</g>
<!-- Int&#45;WWW&#45;&#45;ExtranetSwitch_Int_WWW_eth2 -->
<g id="edge48" class="edge">
<title>Int&#45;WWW&#45;&#45;ExtranetSwitch_Int_WWW_eth2</title>
<path fill="none" stroke="black" d="M2702.24,-2374.73C2655.74,-2344.93 2565.05,-2286.8 2532.68,-2266.05"/>
<polygon fill="white" stroke="transparent" points="2676.88,-2367.23 2676.88,-2378.23 2697.88,-2378.23 2697.88,-2367.23 2676.88,-2367.23"/>
<text text-anchor="start" x="2678.38" y="-2370.33" font-family="Times,serif" font-size="8.00">eth0</text>
</g>
<!-- LDAP -->
<g id="node50" class="node">
<title>LDAP</title>
<polygon fill="none" stroke="black" points="299.16,-1586.98 243.16,-1586.98 243.16,-1550.98 299.16,-1550.98 299.16,-1586.98"/>
<text text-anchor="start" x="251.16" y="-1565.28" font-family="Times,serif" font-size="14.00">LDAP</text>
</g>
<!-- LDAP&#45;&#45;InternalDmzSwitch_LDAP_eth1 -->
<g id="edge49" class="edge">
<title>LDAP&#45;&#45;InternalDmzSwitch_LDAP_eth1</title>
<path fill="none" stroke="black" d="M299.47,-1580.39C343,-1597.93 425.22,-1631.06 462.2,-1645.96"/>
<polygon fill="white" stroke="transparent" points="303.95,-1574.09 303.95,-1585.09 324.95,-1585.09 324.95,-1574.09 303.95,-1574.09"/>
<text text-anchor="start" x="305.45" y="-1577.19" font-family="Times,serif" font-size="8.00">eth0</text>
</g>
<!-- Mail -->
<g id="node51" class="node">
<title>Mail</title>
<polygon fill="none" stroke="black" points="2800.32,-1000.2 2752.32,-1000.2 2752.32,-964.2 2800.32,-964.2 2800.32,-1000.2"/>
<text text-anchor="start" x="2760.32" y="-978.5" font-family="Times,serif" font-size="14.00">Mail</text>
</g>
<!-- Mail&#45;&#45;DmzSwitch_Mail_eth1 -->
<g id="edge50" class="edge">
<title>Mail&#45;&#45;DmzSwitch_Mail_eth1</title>
<path fill="none" stroke="black" d="M2752.17,-994.58C2709.53,-1016.45 2622.12,-1061.27 2587.44,-1079.05"/>
<polygon fill="white" stroke="transparent" points="2732.47,-1000.93 2732.47,-1011.93 2753.47,-1011.93 2753.47,-1000.93 2732.47,-1000.93"/>
<text text-anchor="start" x="2733.97" y="-1004.03" font-family="Times,serif" font-size="8.00">eth0</text>
</g>
<!-- Squid -->
<g id="node52" class="node">
<title>Squid</title>
<polygon fill="none" stroke="black" points="2821.62,-1822.44 2763.62,-1822.44 2763.62,-1786.44 2821.62,-1786.44 2821.62,-1822.44"/>
<text text-anchor="start" x="2771.62" y="-1800.74" font-family="Times,serif" font-size="14.00">Squid</text>
</g>
<!-- Squid&#45;&#45;ExtranetSwitch_Squid_eth1 -->
<g id="edge51" class="edge">
<title>Squid&#45;&#45;ExtranetSwitch_Squid_eth1</title>
<path fill="none" stroke="black" d="M2763.39,-1812.96C2717.24,-1826.41 2628.19,-1852.36 2584.13,-1865.2"/>
<polygon fill="white" stroke="transparent" points="2741.62,-1817.35 2741.62,-1828.35 2762.62,-1828.35 2762.62,-1817.35 2741.62,-1817.35"/>
<text text-anchor="start" x="2743.12" y="-1820.45" font-family="Times,serif" font-size="8.00">eth0</text>
</g>
<!-- OpenVPN -->
<g id="node53" class="node">
<title>OpenVPN</title>
<polygon fill="none" stroke="black" points="1888.55,-2424.5 1802.55,-2424.5 1802.55,-2388.5 1888.55,-2388.5 1888.55,-2424.5"/>
<text text-anchor="start" x="1810.55" y="-2402.8" font-family="Times,serif" font-size="14.00">OpenVPN</text>
</g>
<!-- OpenVPN&#45;&#45;OpenVPN_StaffSwitch_eth2 -->
<g id="edge52" class="edge">
<title>OpenVPN&#45;&#45;OpenVPN_StaffSwitch_eth2</title>
<path fill="none" stroke="black" d="M1817.14,-2388.28C1773.02,-2359.97 1689.91,-2306.65 1659.13,-2286.91"/>
<polygon fill="white" stroke="transparent" points="1791.77,-2380.77 1791.77,-2391.77 1812.77,-2391.77 1812.77,-2380.77 1791.77,-2380.77"/>
<text text-anchor="start" x="1793.27" y="-2383.87" font-family="Times,serif" font-size="8.00">eth0</text>
</g>
<!-- StaffDhcp -->
<g id="node54" class="node">
<title>StaffDhcp</title>
<polygon fill="none" stroke="black" points="1690.38,-2564.51 1603.38,-2564.51 1603.38,-2528.51 1690.38,-2528.51 1690.38,-2564.51"/>
<text text-anchor="start" x="1611.38" y="-2542.81" font-family="Times,serif" font-size="14.00">StaffDhcp</text>
</g>
<!-- StaffDhcp&#45;&#45;StaffDhcp_StaffSwitch_eth5 -->
<g id="edge53" class="edge">
<title>StaffDhcp&#45;&#45;StaffDhcp_StaffSwitch_eth5</title>
<path fill="none" stroke="black" d="M1638.09,-2528.25C1620.08,-2490.77 1579.58,-2406.56 1567.07,-2380.54"/>
<polygon fill="white" stroke="transparent" points="1615.99,-2513.24 1615.99,-2524.24 1636.99,-2524.24 1636.99,-2513.24 1615.99,-2513.24"/>
<text text-anchor="start" x="1617.49" y="-2516.34" font-family="Times,serif" font-size="8.00">eth0</text>
</g>
<!-- StaffDhcp&#45;&#45;StaffDhcp_StaffSwitch_eth6 -->
<g id="edge54" class="edge">
<title>StaffDhcp&#45;&#45;StaffDhcp_StaffSwitch_eth6</title>
<path fill="none" stroke="black" d="M1612.01,-2528.37C1564.39,-2503.59 1481.09,-2460.25 1447.5,-2442.77"/>
<polygon fill="white" stroke="transparent" points="1586.53,-2522.22 1586.53,-2533.22 1607.53,-2533.22 1607.53,-2522.22 1586.53,-2522.22"/>
<text text-anchor="start" x="1588.03" y="-2525.32" font-family="Times,serif" font-size="8.00">eth1</text>
</g>
<!-- Staff&#45;HR&#45;A&#45;1 -->
<g id="node55" class="node">
<title>Staff&#45;HR&#45;A&#45;1</title>
<polygon fill="none" stroke="black" points="478.7,-3251.02 373.7,-3251.02 373.7,-3215.02 478.7,-3215.02 478.7,-3251.02"/>
<text text-anchor="start" x="381.7" y="-3229.32" font-family="Times,serif" font-size="14.00">Staff&#45;HR&#45;A&#45;1</text>
</g>
<!-- Staff&#45;HR&#45;A&#45;1&#45;&#45;HrSwitchA_Staff_HR_A_1_eth1 -->
<g id="edge55" class="edge">
<title>Staff&#45;HR&#45;A&#45;1&#45;&#45;HrSwitchA_Staff_HR_A_1_eth1</title>
<path fill="none" stroke="black" d="M443.48,-3214.76C476.82,-3179.54 548.79,-3103.5 572.03,-3078.95"/>
<polygon fill="white" stroke="transparent" points="437.72,-3195.03 437.72,-3206.03 458.72,-3206.03 458.72,-3195.03 437.72,-3195.03"/>
<text text-anchor="start" x="439.22" y="-3198.13" font-family="Times,serif" font-size="8.00">eth0</text>
</g>
<!-- Staff&#45;HR&#45;B&#45;1 -->
<g id="node56" class="node">
<title>Staff&#45;HR&#45;B&#45;1</title>
<polygon fill="none" stroke="black" points="1479.15,-3755.14 1373.15,-3755.14 1373.15,-3719.14 1479.15,-3719.14 1479.15,-3755.14"/>
<text text-anchor="start" x="1381.15" y="-3733.44" font-family="Times,serif" font-size="14.00">Staff&#45;HR&#45;B&#45;1</text>
</g>
<!-- Staff&#45;HR&#45;B&#45;1&#45;&#45;HrSwitchB_Staff_HR_B_1_eth1 -->
<g id="edge56" class="edge">
<title>Staff&#45;HR&#45;B&#45;1&#45;&#45;HrSwitchB_Staff_HR_B_1_eth1</title>
<path fill="none" stroke="black" d="M1429.38,-3718.92C1437.41,-3673.67 1458.01,-3557.59 1463.5,-3526.69"/>
<polygon fill="white" stroke="transparent" points="1415.02,-3698.93 1415.02,-3709.93 1436.02,-3709.93 1436.02,-3698.93 1415.02,-3698.93"/>
<text text-anchor="start" x="1416.52" y="-3702.03" font-family="Times,serif" font-size="8.00">eth0</text>
</g>
<!-- Staff&#45;Finance&#45;A&#45;1 -->
<g id="node57" class="node">
<title>Staff&#45;Finance&#45;A&#45;1</title>
<polygon fill="none" stroke="black" points="139,-2478.37 0,-2478.37 0,-2442.37 139,-2442.37 139,-2478.37"/>
<text text-anchor="start" x="8" y="-2456.67" font-family="Times,serif" font-size="14.00">Staff&#45;Finance&#45;A&#45;1</text>
</g>
<!-- Staff&#45;Finance&#45;A&#45;1&#45;&#45;FinanceSwitchA_Staff_Finance_A_1_eth1 -->
<g id="edge57" class="edge">
<title>Staff&#45;Finance&#45;A&#45;1&#45;&#45;FinanceSwitchA_Staff_Finance_A_1_eth1</title>
<path fill="none" stroke="black" d="M139.29,-2451.66C168.98,-2447.95 203.28,-2443.68 231.84,-2440.11"/>
<polygon fill="white" stroke="transparent" points="141.5,-2438.19 141.5,-2449.19 162.5,-2449.19 162.5,-2438.19 141.5,-2438.19"/>
<text text-anchor="start" x="143" y="-2441.29" font-family="Times,serif" font-size="8.00">eth0</text>
</g>
<!-- Staff&#45;Finance&#45;B&#45;1 -->
<g id="node58" class="node">
<title>Staff&#45;Finance&#45;B&#45;1</title>
<polygon fill="none" stroke="black" points="2340.79,-3551.54 2200.79,-3551.54 2200.79,-3515.54 2340.79,-3515.54 2340.79,-3551.54"/>
<text text-anchor="start" x="2208.79" y="-3529.84" font-family="Times,serif" font-size="14.00">Staff&#45;Finance&#45;B&#45;1</text>
</g>
<!-- Staff&#45;Finance&#45;B&#45;1&#45;&#45;FinanceSwitchB_Staff_Finance_B_1_eth1 -->
<g id="edge58" class="edge">
<title>Staff&#45;Finance&#45;B&#45;1&#45;&#45;FinanceSwitchB_Staff_Finance_B_1_eth1</title>
<path fill="none" stroke="black" d="M2259.97,-3515.5C2235.59,-3474.87 2177.17,-3377.51 2160.36,-3349.5"/>
<polygon fill="white" stroke="transparent" points="2237.04,-3501.61 2237.04,-3512.61 2258.04,-3512.61 2258.04,-3501.61 2237.04,-3501.61"/>
<text text-anchor="start" x="2238.54" y="-3504.71" font-family="Times,serif" font-size="8.00">eth0</text>
</g>
</g>
</svg>
